<?xml version="1.0" standalone="no"?><!DOCTYPE svg PUBLIC "-//W3C//DTD SVG 1.1//EN" "http://www.w3.org/Graphics/SVG/1.1/DTD/svg11.dtd"><svg t="1675135341776" class="icon" viewBox="0 0 1053 1024" version="1.1" xmlns="http://www.w3.org/2000/svg" p-id="1529" xmlns:xlink="http://www.w3.org/1999/xlink" width="32.90625" height="32"><path d="M162.900971 539.048917h2.557609l344.708856-30.12295a28.417878 28.417878 0 1 0-4.831039-56.835755l-344.850946 30.26504a28.417878 28.417878 0 0 0 2.41552 56.835755zM544.553068 576.844695a28.417878 28.417878 0 0 0-30.691308-25.860269l-344.850945 30.12295a28.417878 28.417878 0 0 0 2.415519 56.835756h2.557609l344.850946-30.122951a28.417878 28.417878 0 0 0 25.718179-30.975486z" p-id="1530"></path><path d="M945.95559 263.821772l-329.93156-67.776638L610.198366 128.410585v-6.96238A132.711489 132.711489 0 0 0 466.119726 0.530136L121.552959 31.079354A132.853578 132.853578 0 0 0 0.4928 174.873815l44.1898 505.127776a132.995668 132.995668 0 0 0 132.001042 121.344337h11.50924l162.976529-14.208938-1.562984 7.672827a136.832081 136.832081 0 0 0-2.131341 38.790403 132.001042 132.001042 0 0 0 105.288237 118.076281l338.883191 69.623801a130.438059 130.438059 0 0 0 26.428627 2.699698 132.995668 132.995668 0 0 0 130.01179-106.424952l101.167645-496.602412a132.995668 132.995668 0 0 0-103.298986-157.150864zM183.361843 744.225994a75.875733 75.875733 0 0 1-81.985577-69.197532L57.328555 170.042776a76.159912 76.159912 0 0 1 68.771264-82.411845L471.092854 57.365891h6.536112a76.017823 76.017823 0 0 1 75.449465 69.197532l5.257308 62.235152L597.268231 631.833288a69.339622 69.339622 0 0 1-1.847162 22.308034c0 2.131341-0.994626 4.404771-1.562983 6.536112l-1.420894 3.978503a76.017823 76.017823 0 0 1-64.508582 50.157554z m809.909514-335.046778l-101.167645 497.31286a76.017823 76.017823 0 0 1-89.232136 59.393364L464.272564 895.693282a75.449465 75.449465 0 0 1-60.245901-67.492459 73.460214 73.460214 0 0 1 1.278804-22.308034l4.83104-24.155196 56.835755-4.973129a28.417878 28.417878 0 0 0 19.182067 14.208939L824.611253 860.455114a26.570716 26.570716 0 0 0 5.683575 0 28.417878 28.417878 0 0 0 5.825665-56.835755L586.753616 753.603894a132.42731 132.42731 0 0 0 47.599946-46.605319l208.303043 55.841129a32.964738 32.964738 0 0 0 7.388648 0.994626 28.417878 28.417878 0 0 0 7.388648-55.983219L652.683093 653.146696c0-2.27343 0.852536-4.404771 0.994625-6.678201a150.472662 150.472662 0 0 0 0-19.608336l-6.678201-77.296627L696.730803 625.723444l149.193858-99.462571a103.867343 103.867343 0 0 0-91.221387-184.716205 102.872717 102.872717 0 0 0-126.601646-11.509241l-6.536111-74.596929 313.44919 64.366493a76.017823 76.017823 0 0 1 58.540828 89.374225z m-335.473046-31.401754a46.321141 46.321141 0 0 1 64.508582 13.356402l17.050727 24.581464 23.444749-15.487743a46.889498 46.889498 0 0 1 64.792761 13.072224 47.599945 47.599945 0 0 1-13.356403 65.503208L712.360636 546.153387l-67.066192-101.736002-0.852536-1.420894a47.315766 47.315766 0 0 1 13.356403-65.219029z" p-id="1531"></path><path d="M191.318849 303.322622l136.97417 115.376584 114.381958-136.832082 2.415519-2.841787a104.151522 104.151522 0 0 0-14.208939-144.931176 103.014807 103.014807 0 0 0-127.880449-3.978503A103.441075 103.441075 0 0 0 178.672893 156.828463a104.861969 104.861969 0 0 0 12.645956 146.494159z m30.833397-109.977186a46.889498 46.889498 0 0 1 31.970112-16.624459h3.978503a46.036962 46.036962 0 0 1 29.980861 11.082972L313.089454 208.264821l16.624459-25.149821a46.46323 46.46323 0 0 1 65.645297-5.683576 47.457856 47.457856 0 0 1 5.967755 66.213655l-79.427968 94.773622L227.835821 259.843269a47.599945 47.599945 0 0 1-5.683575-66.497833z" p-id="1532"></path></svg>